<svg width="50" height="50" viewBox="0 0 50 50" fill="none" xmlns="http://www.w3.org/2000/svg">
<circle cx="25" cy="25" r="24" stroke="#1A132F" stroke-width="2"/>
<path d="M23.435 43.04C23.255 43.16 23.08 43.285 22.91 43.415C22.75 43.545 22.615 43.705 22.505 43.895C22.345 43.945 22.185 43.995 22.025 44.045C21.875 44.105 21.74 44.18 21.62 44.27C21.02 44.34 20.44 44.335 19.88 44.255C19.33 44.185 18.85 44.04 18.44 43.82C18.09 43.55 17.805 43.245 17.585 42.905C17.375 42.555 17.215 42.18 17.105 41.78C16.935 41.16 16.845 40.485 16.835 39.755C16.835 39.015 16.855 38.245 16.895 37.445C16.895 37.385 16.895 37.325 16.895 37.265C16.905 37.195 16.91 37.13 16.91 37.07C16.92 36.94 16.925 36.81 16.925 36.68C16.935 36.55 16.945 36.42 16.955 36.29C16.995 35.69 17.01 35.1 17 34.52C16.99 33.94 16.875 33.385 16.655 32.855C16.655 32.835 16.665 32.815 16.685 32.795C16.715 32.775 16.735 32.765 16.745 32.765C16.925 32.785 17.135 32.855 17.375 32.975C17.615 33.095 17.85 33.255 18.08 33.455C18.32 33.645 18.51 33.865 18.65 34.115C18.8 34.355 18.865 34.61 18.845 34.88C18.835 35.01 18.775 35.16 18.665 35.33C18.565 35.49 18.505 35.625 18.485 35.735C18.435 35.975 18.39 36.265 18.35 36.605C18.32 36.945 18.29 37.285 18.26 37.625C18.21 38.145 18.165 38.67 18.125 39.2C18.095 39.73 18.095 40.23 18.125 40.7C18.165 41.16 18.26 41.57 18.41 41.93C18.55 42.24 18.74 42.5 18.98 42.71C19.23 42.91 19.555 43.03 19.955 43.07C20.255 43.1 20.545 43.1 20.825 43.07C21.115 43.03 21.4 42.99 21.68 42.95C21.81 42.92 21.94 42.895 22.07 42.875C22.21 42.855 22.345 42.84 22.475 42.83C22.495 42.83 22.53 42.825 22.58 42.815C22.73 42.795 22.885 42.79 23.045 42.8C23.215 42.81 23.345 42.89 23.435 43.04Z" fill="#1A132F"/>
<path d="M40.94 19.3C40.96 19.4 40.96 19.48 40.94 19.54C40.94 19.6 40.93 19.65 40.91 19.69C40.87 19.79 40.85 19.88 40.85 19.96C40.41 20.1 40.01 20.18 39.65 20.2C39.31 20.22 38.89 20.19 38.39 20.11C38.37 20.11 38.32 20.1 38.24 20.08C37.72 20 37.18 19.93 36.62 19.87C36.06 19.81 35.46 19.83 34.82 19.93C34.58 20.17 34.47 20.58 34.49 21.16C34.51 21.74 34.55 22.36 34.61 23.02C34.63 23.2 34.64 23.39 34.64 23.59C34.66 23.79 34.68 23.98 34.7 24.16C34.76 24.96 34.78 25.8 34.76 26.68C34.76 27.56 34.68 28.41 34.52 29.23C34.36 30.03 34.06 30.74 33.62 31.36C33.4 31.68 33.13 31.91 32.81 32.05C32.51 32.21 32.22 32.52 31.94 32.98C31.18 32.88 30.52 32.69 29.96 32.41C29.4 32.15 28.89 31.83 28.43 31.45C27.99 31.09 27.53 30.7 27.05 30.28C27.19 30.28 27.24 30.22 27.2 30.1C27.16 29.98 27.07 29.86 26.93 29.74C26.81 29.6 26.68 29.53 26.54 29.53C26.66 29.39 26.83 29.32 27.05 29.32C26.85 29.08 26.49 28.92 25.97 28.84C26.37 28.8 26.74 28.82 27.08 28.9C27.44 28.96 27.78 29.04 28.1 29.14C28.48 29.24 28.86 29.33 29.24 29.41C29.64 29.47 30.07 29.43 30.53 29.29C31.07 28.95 31.47 28.47 31.73 27.85C32.01 27.21 32.19 26.5 32.27 25.72C32.35 24.92 32.38 24.1 32.36 23.26C32.36 22.42 32.34 21.61 32.3 20.83C32.28 20.67 32.26 20.52 32.24 20.38C32.24 20.22 32.24 20.07 32.24 19.93C31.58 20.01 30.9 20.09 30.2 20.17C29.5 20.23 28.84 20.33 28.22 20.47C27.62 20.61 27.1 20.86 26.66 21.22C25.82 21.04 25.06 20.75 24.38 20.35C24.28 20.79 24.16 21.29 24.02 21.85C23.88 22.41 23.71 22.96 23.51 23.5C23.33 24.02 23.09 24.46 22.79 24.82C22.83 25.12 22.98 25.46 23.24 25.84C23.5 26.22 23.8 26.63 24.14 27.07C24.48 27.49 24.8 27.93 25.1 28.39C25.42 28.83 25.64 29.27 25.76 29.71H25.58C25.62 29.77 25.67 29.85 25.73 29.95C25.83 30.11 25.91 30.27 25.97 30.43C26.05 30.57 26.05 30.77 25.97 31.03C25.21 31.15 24.55 31.01 23.99 30.61C23.45 30.19 22.99 29.64 22.61 28.96C22.23 28.28 21.89 27.63 21.59 27.01C21.43 27.11 21.27 27.22 21.11 27.34C20.97 27.44 20.82 27.54 20.66 27.64C20.24 27.96 19.79 28.26 19.31 28.54C18.85 28.8 18.32 28.9 17.72 28.84C17.92 29 17.81 29.13 17.39 29.23C17.11 29.29 16.77 29.31 16.37 29.29C15.97 29.27 15.69 29.2 15.53 29.08C15.77 29.08 15.88 29.03 15.86 28.93C15.84 28.83 15.67 28.77 15.35 28.75C15.91 28.55 16.43 28.31 16.91 28.03C17.41 27.73 17.88 27.35 18.32 26.89C18.3 27.05 18.3 27.14 18.32 27.16C18.34 27.16 18.37 27.12 18.41 27.04C18.47 26.96 18.52 26.89 18.56 26.83C18.64 26.73 18.73 26.66 18.83 26.62C18.95 26.56 19.08 26.58 19.22 26.68C19.24 26.36 19.38 26.09 19.64 25.87C19.9 25.65 20.09 25.37 20.21 25.03C20.03 24.39 19.71 23.92 19.25 23.62C18.81 23.3 18.4 22.94 18.02 22.54C17.88 22.68 17.82 22.84 17.84 23.02C17.88 23.18 17.81 23.34 17.63 23.5C17.31 23.46 16.95 23.38 16.55 23.26C16.17 23.12 15.86 22.89 15.62 22.57C15.38 22.23 15.32 21.75 15.44 21.13C15.84 20.99 16.12 20.72 16.28 20.32C16.46 19.92 16.58 19.47 16.64 18.97C16.72 18.45 16.82 17.97 16.94 17.53C16.38 17.63 15.95 17.88 15.65 18.28C15.37 18.68 15.07 19.08 14.75 19.48C14.27 19.5 13.87 19.44 13.55 19.3C13.23 19.16 12.93 19 12.65 18.82C12.53 18.74 12.41 18.67 12.29 18.61C12.17 18.53 12.05 18.46 11.93 18.4C11.97 18.1 11.9 17.8 11.72 17.5C11.54 17.2 11.31 16.99 11.03 16.87C12.09 16.65 13.13 16.46 14.15 16.3C15.19 16.14 16.21 15.82 17.21 15.34C17.49 14.58 17.68 13.71 17.78 12.73C17.88 11.75 17.93 10.73 17.93 9.67C17.69 9.39 17.37 9.03 16.97 8.59C16.59 8.15 16.38 7.68 16.34 7.18C16.56 7.12 16.78 7.12 17 7.18C17.22 7.22 17.45 7.29 17.69 7.39C17.93 7.47 18.18 7.55 18.44 7.63C18.7 7.71 18.99 7.74 19.31 7.72C19.41 7.92 19.55 8.09 19.73 8.23C19.91 8.35 20.1 8.47 20.3 8.59C20.52 8.91 20.63 9.28 20.63 9.7C20.65 10.1 20.61 10.53 20.51 10.99C20.41 11.55 20.26 12.12 20.06 12.7C19.86 13.28 19.71 13.84 19.61 14.38C20.07 14.42 20.48 14.37 20.84 14.23C21.22 14.09 21.58 13.93 21.92 13.75C22.18 13.59 22.44 13.46 22.7 13.36C22.98 13.24 23.27 13.18 23.57 13.18C24.05 13.2 24.47 13.29 24.83 13.45C25.21 13.61 25.66 13.77 26.18 13.93C26.1 13.99 26 14.11 25.88 14.29C25.78 14.47 25.66 14.65 25.52 14.83C25.38 14.99 25.2 15.09 24.98 15.13C25.12 15.61 25.16 16.06 25.1 16.48C25.06 16.9 25 17.32 24.92 17.74C24.9 17.88 24.87 18.03 24.83 18.19C24.81 18.33 24.79 18.47 24.77 18.61C25.27 18.61 25.75 18.58 26.21 18.52C26.69 18.46 27.17 18.4 27.65 18.34C28.27 18.26 28.91 18.19 29.57 18.13C30.25 18.07 30.97 18.05 31.73 18.07C31.69 17.67 31.57 17.37 31.37 17.17C31.17 16.95 30.93 16.78 30.65 16.66C30.71 16.3 30.65 16 30.47 15.76C30.29 15.5 30.08 15.27 29.84 15.07C29.64 14.89 29.45 14.71 29.27 14.53C29.09 14.33 28.98 14.13 28.94 13.93C29.22 13.83 29.5 13.85 29.78 13.99C30.08 14.13 30.37 14.3 30.65 14.5C30.73 14.54 30.8 14.59 30.86 14.65C30.94 14.69 31.02 14.73 31.1 14.77C31.38 14.93 31.65 15.03 31.91 15.07C32.19 15.09 32.46 14.96 32.72 14.68C32.7 14.62 32.64 14.59 32.54 14.59C32.48 14.59 32.44 14.59 32.42 14.59C32.84 13.95 33.23 13.36 33.59 12.82C33.97 12.26 34.38 11.65 34.82 10.99C34.04 10.85 33.25 10.83 32.45 10.93C31.67 11.03 30.91 11.15 30.17 11.29C30.01 11.31 29.85 11.34 29.69 11.38C29.55 11.4 29.4 11.42 29.24 11.44C29.12 11.58 28.99 11.7 28.85 11.8C28.73 11.9 28.63 12.03 28.55 12.19C28.03 12.23 27.6 12.17 27.26 12.01C26.94 11.83 26.64 11.63 26.36 11.41C26.22 11.31 26.12 11.24 26.06 11.2C26.12 10.96 26.11 10.77 26.03 10.63C25.95 10.49 25.86 10.36 25.76 10.24C25.68 10.14 25.6 10.04 25.52 9.94C25.46 9.84 25.41 9.72 25.37 9.58C26.19 9.7 27.04 9.73 27.92 9.67C28.82 9.61 29.72 9.54 30.62 9.46C31.02 9.42 31.42 9.38 31.82 9.34C32.22 9.3 32.62 9.27 33.02 9.25C33.1 9.25 33.18 9.25 33.26 9.25C33.34 9.25 33.42 9.25 33.5 9.25C33.62 9.27 33.74 9.28 33.86 9.28C33.98 9.28 34.1 9.27 34.22 9.25C34.36 9.23 34.48 9.19 34.58 9.13C34.7 9.07 34.82 9.02 34.94 8.98C35.12 8.88 35.3 8.8 35.48 8.74C35.66 8.68 35.87 8.67 36.11 8.71C36.59 8.79 37.01 8.97 37.37 9.25C37.73 9.51 38.14 9.73 38.6 9.91C38.6 9.99 38.61 10.06 38.63 10.12C38.65 10.16 38.67 10.2 38.69 10.24C38.77 10.36 38.77 10.46 38.69 10.54C38.85 10.78 39.03 10.99 39.23 11.17C39.43 11.35 39.58 11.58 39.68 11.86C38.94 11.96 38.3 12.18 37.76 12.52C37.24 12.86 36.76 13.26 36.32 13.72C35.86 14.2 35.42 14.71 35 15.25C34.6 15.79 34.17 16.29 33.71 16.75C33.81 16.97 33.93 17.17 34.07 17.35C34.23 17.51 34.35 17.71 34.43 17.95C34.53 17.95 34.62 17.95 34.7 17.95C34.8 17.95 34.89 17.95 34.97 17.95C35.49 17.95 35.98 17.92 36.44 17.86C36.9 17.8 37.25 17.62 37.49 17.32C38.15 17.44 38.68 17.57 39.08 17.71C39.48 17.85 39.82 18.04 40.1 18.28C40.38 18.5 40.66 18.84 40.94 19.3ZM22.58 15.55C22.08 15.55 21.55 15.7 20.99 16C20.45 16.28 19.92 16.5 19.4 16.66C19.28 17.34 19.14 17.9 18.98 18.34C18.82 18.76 18.67 19.16 18.53 19.54C18.41 19.92 18.31 20.41 18.23 21.01C18.81 21.27 19.31 21.61 19.73 22.03C20.15 22.45 20.64 22.8 21.2 23.08C21.64 21.96 22.03 20.78 22.37 19.54C22.71 18.28 22.78 16.95 22.58 15.55Z" fill="#1A132F"/>
</svg>
